<svg xmlns="http://www.w3.org/2000/svg" viewBox="0 -5 73 73"><g id="PC_WARNING" data-name="PC WARNING"><path d="M55.44,6H8.56A5.57,5.57,0,0,0,3,11.56V43.44A5.57,5.57,0,0,0,8.56,49h16.2a7.88,7.88,0,0,0-2,8H19a1,1,0,0,0,0,2H45a1,1,0,0,0,0-2H41.27a7.88,7.88,0,0,0-2-8h16.2A5.57,5.57,0,0,0,61,43.44V11.56A5.57,5.57,0,0,0,55.44,6ZM34.76,49c3.89.38,5.72,4.51,4.45,8H24.79c-1.27-3.47.57-7.6,4.45-8C30,49,34,49,34.76,49Zm20.68-2H8.56A3.57,3.57,0,0,1,5,43.44V41h6a1,1,0,0,0,0-2H5V11.56A3.57,3.57,0,0,1,8.56,8H55.44A3.57,3.57,0,0,1,59,11.56V39H17a1,1,0,0,0,0,2H59v2.44A3.57,3.57,0,0,1,55.44,47Z" id="id_101" style="fill: rgb(255, 255, 255);"></path><path d="M14.92,39.62a1.15,1.15,0,0,0-.21-.33A1,1,0,0,0,13,39.8a1,1,0,0,0,1.53,1A1,1,0,0,0,14.92,39.62Z" id="id_102" style="fill: rgb(255, 255, 255);"></path><path d="M32,42a2,2,0,0,0,0,4A2,2,0,0,0,32,42Z" id="id_103" style="fill: rgb(255, 255, 255);"></path><path d="M21,34.35H43a1,1,0,0,0,.87-1.5l-11-19a1,1,0,0,0-1.74,0l-11,19.05A1,1,0,0,0,21,34.35Zm11-18,9.27,16.05H22.73Z" id="id_104" style="fill: rgb(255, 255, 255);"></path><path d="M32,27a1,1,0,0,0,1-1V21a1,1,0,0,0-2,0v5A1,1,0,0,0,32,27Z" id="id_105" style="fill: rgb(255, 255, 255);"></path><path d="M32,28.5A1.25,1.25,0,0,0,32,31,1.25,1.25,0,0,0,32,28.5Z" id="id_106" style="fill: rgb(255, 255, 255);"></path></g></svg>